<svg width="698" height="698" viewBox="0 0 698 698" fill="none" xmlns="http://www.w3.org/2000/svg">
<g opacity="0.5">
<path d="M349 698C541.747 698 698 541.747 698 349C698 156.253 541.747 0 349 0C156.253 0 0 156.253 0 349C0 541.747 156.253 698 349 698Z" fill="url(#paint0_linear_216_206)"/>
</g>
<path d="M349.7 688.4C538.36 688.4 691.3 535.461 691.3 346.8C691.3 158.14 538.36 5.2002 349.7 5.2002C161.039 5.2002 8.09961 158.14 8.09961 346.8C8.09961 535.461 161.039 688.4 349.7 688.4Z" fill="#F5F5F5"/>
<path d="M350 689.8C416.8 689.9 482.1 670.4 537.8 633.6C525.2 564.8 477.3 560.9 477.3 560.9H213.1C213.1 560.9 167.9 564.6 153.8 627.9C211.2 668.3 279.8 689.9 350 689.8Z" fill="#026ED6"/>
<path d="M346.4 504.5C437.472 504.5 511.3 430.672 511.3 339.6C511.3 248.528 437.472 174.7 346.4 174.7C255.328 174.7 181.5 248.528 181.5 339.6C181.5 430.672 255.328 504.5 346.4 504.5Z" fill="#333333"/>
<path opacity="0.1" d="M293.1 476.9H398.8V561.4C398.8 590.6 375.2 614.2 346 614.2C316.8 614.2 293.2 590.5 293.2 561.4L293.1 476.9Z" fill="black"/>
<path d="M296.5 473H395.5C397.4 473 398.9 474.5 398.9 476.4V557.6C398.9 586.8 375.3 610.4 346.1 610.4C316.9 610.4 293.3 586.7 293.3 557.6V476.4C293.2 474.5 294.7 473 296.5 473Z" fill="#FDB797"/>
<path opacity="0.1" d="M293.3 516.8C327.4 529.5 364.8 529.6 399 517.1V504.1H293.3V516.8Z" fill="black"/>
<path d="M346.4 523.9C430.072 523.9 497.9 456.071 497.9 372.4C497.9 288.729 430.072 220.9 346.4 220.9C262.729 220.9 194.9 288.729 194.9 372.4C194.9 456.071 262.729 523.9 346.4 523.9Z" fill="#FDB797"/>
<path opacity="0.1" d="M238.5 234.7C238.5 234.7 302.3 364.3 482.4 289L440.5 223.3L366.2 196.6L238.5 234.7Z" fill="black"/>
<path d="M238.5 232.8C238.5 232.8 302.3 362.4 482.4 287.1L440.5 221.4L366.2 194.7L238.5 232.8Z" fill="#333333"/>
<path d="M237.9 224C242.2 210.7 249.6 198.6 259.6 188.7C289.4 159.2 338.2 153 363.3 119.5C369.3 128.8 364.7 143.2 354.3 147.2C378.3 147 406.1 144.9 419.7 125.2C426.5 141.1 423.6 159.6 412.1 172.6C433.4 173.6 456.1 188 457.4 209.2C458.3 223.4 449.4 236.8 437.8 244.9C426.2 253 412.1 256.8 398.2 259.8C357.9 268.7 211.5 306.1 237.9 224Z" fill="#333333"/>
<path d="M194.9 398.7C202.687 398.7 209 386.88 209 372.3C209 357.72 202.687 345.9 194.9 345.9C187.113 345.9 180.8 357.72 180.8 372.3C180.8 386.88 187.113 398.7 194.9 398.7Z" fill="#FDB797"/>
<path d="M497.8 398.7C505.587 398.7 511.9 386.88 511.9 372.3C511.9 357.72 505.587 345.9 497.8 345.9C490.013 345.9 483.7 357.72 483.7 372.3C483.7 386.88 490.013 398.7 497.8 398.7Z" fill="#FDB797"/>
<defs>
<linearGradient id="paint0_linear_216_206" x1="349" y1="698" x2="349" y2="0" gradientUnits="userSpaceOnUse">
<stop stop-color="#808080" stop-opacity="0.25"/>
<stop offset="0.54" stop-color="#808080" stop-opacity="0.12"/>
<stop offset="1" stop-color="#808080" stop-opacity="0.1"/>
</linearGradient>
</defs>
</svg>
