<svg width="1011" height="728" viewBox="0 0 1011 728" fill="none" xmlns="http://www.w3.org/2000/svg">
<g clip-path="url(#clip0_216_325)">
<path d="M1010.9 727.3C958.8 719.7 908.7 713.1 860.6 707.6L879.6 676.8C873.2 674.9 845 692.5 845 692.5L870 603C837.8 606.1 821.3 697.5 821.3 697.5L785.3 666.4L802.7 701.3C655.5 686.1 528.3 680.1 421.4 679.4L437.7 653.1C431.3 651.2 403.1 668.8 403.1 668.8L428.1 579.3C395.9 582.4 379.4 673.8 379.4 673.8L343.4 642.7L361.9 679.6C272.2 680.7 199.1 685.5 142.7 691.1C159.2 650 215.1 611.1 215.1 611.1C172.4 621.5 150 639.3 138.3 655.8C137.4 605 143.4 510.8 188.2 406.7C188.2 406.7 99.9 567.1 111.2 675.1L112.5 694.3C37.6 702.8 0 712 0 712L1010.9 727.3Z" fill="#3F3D56"/>
<path d="M537.5 29.1V677.3C537.5 693.4 524.4 706.4 508.4 706.4H245.2C229.1 706.4 216.1 693.4 216.1 677.4V677.3V29.1C216.1 13 229.1 0 245.2 0H284.6V5.1C284.6 18.3 295.3 29.1 308.6 29.1H442.4C447.5 29.1 452.5 27.5 456.6 24.4C457.4 23.8 458.2 23.1 459 22.4C463.7 17.9 466.4 11.6 466.4 5.1V0H508.4C524.5 0 537.5 13 537.5 29.1Z" fill="#3F3D56"/>
<path d="M289.4 115C293.266 115 296.4 111.866 296.4 108C296.4 104.134 293.266 101 289.4 101C285.534 101 282.4 104.134 282.4 108C282.4 111.866 285.534 115 289.4 115Z" fill="#F2F2F2"/>
<path d="M459 22.3999C458.3 23.0999 457.5 23.7999 456.6 24.3999C473.9 54.8999 503.3 76.6999 537.5 84.5999V81.4999C504.3 73.5999 475.8 52.1999 459 22.3999Z" fill="#026ED6"/>
<path d="M399.2 29H395.9C419.6 89.2 473.5 132.3 537.5 142.1V139C475.2 129.3 422.7 87.5 399.2 29Z" fill="#026ED6"/>
<path d="M338.8 29H335.6C362 120.7 441.8 189 537.5 200.1V197.1C443.5 186.1 365.1 119.1 338.8 29Z" fill="#026ED6"/>
<path d="M266.4 159.8H264.6V158H264.2V159.8H262.4V160.2H264.2V162H264.6V160.2H266.4V159.8Z" fill="#F2F2F2"/>
<path d="M389.4 68.8H387.6V67H387.2V68.8H385.4V69.2H387.2V71H387.6V69.2H389.4V68.8Z" fill="#F2F2F2"/>
<path d="M284.4 231.8H282.6V230H282.2V231.8H280.4V232.2H282.2V234H282.6V232.2H284.4V231.8Z" fill="#F2F2F2"/>
<path d="M368.4 178.8H366.6V177H366.2V178.8H364.4V179.2H366.2V181H366.6V179.2H368.4V178.8Z" fill="#F2F2F2"/>
<path d="M488.4 211.8H486.6V210H486.2V211.8H484.4V212.2H486.2V214H486.6V212.2H488.4V211.8Z" fill="#F2F2F2"/>
<path d="M467.4 129C469.61 129 471.4 127.209 471.4 125C471.4 122.791 469.61 121 467.4 121C465.191 121 463.4 122.791 463.4 125C463.4 127.209 465.191 129 467.4 129Z" fill="#FF6584"/>
<path d="M324.1 218.8L321.8 219.2C322.5 223.7 323.1 228.4 323.5 233L325.8 232.8C325.4 228.1 324.8 223.4 324.1 218.8Z" fill="#E6E6E6"/>
<path d="M317.9 191.5L315.7 192.2C317 196.6 318.2 201.1 319.2 205.6L321.4 205.1C320.5 200.5 319.3 195.9 317.9 191.5Z" fill="#E6E6E6"/>
<path d="M308 165.2L305.9 166.2C307.8 170.4 309.6 174.7 311.3 179L313.4 178.2C311.8 173.8 310 169.5 308 165.2Z" fill="#E6E6E6"/>
<path d="M294.6 140.7L292.7 141.9C295.2 145.8 297.5 149.8 299.7 153.8L301.7 152.7C299.5 148.6 297.1 144.6 294.6 140.7Z" fill="#E6E6E6"/>
<path d="M277.9 118.1L276.1 119.6C279.1 123.1 282 126.8 284.7 130.5L286.5 129.1C283.9 125.4 281 121.7 277.9 118.1Z" fill="#E6E6E6"/>
<path d="M258.4 98.1001L256.9 99.8001C260.3 102.9 263.7 106.1 266.9 109.4L268.5 107.8C265.3 104.4 261.8 101.2 258.4 98.1001Z" fill="#E6E6E6"/>
<path d="M236.2 80.7998L234.9 82.6998C238.7 85.2998 242.5 87.9998 246.1 90.7998L247.5 88.9998C243.9 86.1998 240.1 83.4998 236.2 80.7998Z" fill="#E6E6E6"/>
<path d="M216.1 68.8999V71.4999C218.5 72.6999 220.9 74.0999 223.2 75.3999L224.3 73.3999C221.6 71.7999 218.9 70.2999 216.1 68.8999Z" fill="#E6E6E6"/>
<path d="M323.6 434.8C324 432.6 324.3 430.3 324.6 428L326.9 428.3C326.6 430.6 326.3 432.9 325.9 435.2L323.6 434.8Z" fill="#E6E6E6"/>
<path d="M317.2 461.8L319.4 462.5C320.8 458.1 322 453.5 323.1 449L320.9 448.5C319.8 452.9 318.6 457.4 317.2 461.8Z" fill="#E6E6E6"/>
<path d="M307.2 487.6L309.3 488.6C311.3 484.4 313.1 480.1 314.8 475.7L312.7 474.9C311 479.2 309.1 483.5 307.2 487.6Z" fill="#E6E6E6"/>
<path d="M293.6 511.8L295.5 513.1C298 509.2 300.5 505.2 302.8 501.1L300.8 500C298.6 504 296.2 508 293.6 511.8Z" fill="#E6E6E6"/>
<path d="M276.9 534L278.6 535.5C281.7 532 284.6 528.3 287.4 524.6L285.6 523.2C282.9 526.9 280 530.5 276.9 534Z" fill="#E6E6E6"/>
<path d="M257.4 553.6L258.9 555.3C262.4 552.2 265.9 549 269.1 545.7L267.5 544.1C264.2 547.4 260.8 550.6 257.4 553.6Z" fill="#E6E6E6"/>
<path d="M235.3 570.4L236.6 572.3C240.5 569.7 244.3 567 248 564.2L246.6 562.4C243 565.2 239.1 567.9 235.3 570.4Z" fill="#E6E6E6"/>
<path d="M224.6 579.7C221.8 581.3 219 582.8 216.1 584.2V581.6C218.6 580.3 221 579 223.5 577.7L224.6 579.7Z" fill="#E6E6E6"/>
<path d="M324.3 247.1H326.6C326.6 249.4 326.6 251.8 326.6 254H324.3C324.3 251.7 324.3 249.4 324.3 247.1Z" fill="#E6E6E6"/>
<path d="M226.2 301.6H461.4C497.9 301.6 527.4 331.1 527.4 367.6V376.3H292.2C255.7 376.3 226.2 346.8 226.2 310.3V301.6Z" fill="white"/>
<path d="M382.3 705.5C382.1 705.1 376.7 696.1 374.8 677.3C373.1 660.1 374.2 631.1 389.2 590.6C417.7 513.9 382.6 452.1 382.3 451.5L384 450.5C384.1 450.7 393.1 466.4 398.5 491.5C405.6 524.8 403 559.4 391.1 591.3C362.6 667.8 383.8 704.1 384 704.4L382.3 705.5Z" fill="#F2F2F2"/>
<path d="M371.2 447C378.38 447 384.2 441.18 384.2 434C384.2 426.82 378.38 421 371.2 421C364.02 421 358.2 426.82 358.2 434C358.2 441.18 364.02 447 371.2 447Z" fill="#026ED6"/>
<path d="M412.2 495C419.38 495 425.2 489.18 425.2 482C425.2 474.82 419.38 469 412.2 469C405.02 469 399.2 474.82 399.2 482C399.2 489.18 405.02 495 412.2 495Z" fill="#F2F2F2"/>
<path d="M384.2 527C391.38 527 397.2 521.18 397.2 514C397.2 506.82 391.38 501 384.2 501C377.02 501 371.2 506.82 371.2 514C371.2 521.18 377.02 527 384.2 527Z" fill="#026ED6"/>
<path d="M418.2 554C425.38 554 431.2 548.18 431.2 541C431.2 533.82 425.38 528 418.2 528C411.02 528 405.2 533.82 405.2 541C405.2 548.18 411.02 554 418.2 554Z" fill="#026ED6"/>
<path d="M374.2 596C381.38 596 387.2 590.18 387.2 583C387.2 575.82 381.38 570 374.2 570C367.02 570 361.2 575.82 361.2 583C361.2 590.18 367.02 596 374.2 596Z" fill="#F2F2F2"/>
<path d="M390.2 706C390.2 706 377.2 674 416.2 650L390.2 706Z" fill="#F2F2F2"/>
<path d="M374.2 705.4C374.2 705.4 368.3 671.4 322.5 671.7L374.2 705.4Z" fill="#F2F2F2"/>
<path opacity="0.2" d="M322.4 419C366.583 419 402.4 383.183 402.4 339C402.4 294.817 366.583 259 322.4 259C278.218 259 242.4 294.817 242.4 339C242.4 383.183 278.218 419 322.4 419Z" fill="#00B0FF"/>
<path opacity="0.2" d="M322.4 395.3C353.493 395.3 378.7 370.094 378.7 339C378.7 307.907 353.493 282.7 322.4 282.7C291.306 282.7 266.1 307.907 266.1 339C266.1 370.094 291.306 395.3 322.4 395.3Z" fill="#00B0FF"/>
<path d="M322.4 376.2C342.945 376.2 359.6 359.545 359.6 339C359.6 318.455 342.945 301.8 322.4 301.8C301.855 301.8 285.2 318.455 285.2 339C285.2 359.545 301.855 376.2 322.4 376.2Z" fill="#026ED6"/>
<path d="M329.2 331C329.2 327.3 326.2 324.2 322.4 324.2C318.7 324.2 315.6 327.2 315.6 331C315.6 333 316.5 335 318.1 336.2L315.6 353.6H329.1L326.6 336.2C328.3 334.9 329.2 333 329.2 331Z" fill="white"/>
<path d="M696.1 53.2999C696.1 53.2999 673.8 33.2999 643.8 70.9999C613.8 108.7 566.9 127.1 556.1 141.8C556.1 141.8 600.7 123.3 616.1 115.7C631.5 108.1 630.7 109.5 630.7 109.5C630.7 109.5 609.9 124.1 606.1 138.7C602.3 153.3 605.3 165.6 598.4 180.2C591.5 194.8 730.7 190.2 730.7 190.2C730.7 190.2 744.5 166.4 740.7 141.8C736.9 117.2 739.2 56.3999 696.1 53.2999Z" fill="#2F2E41"/>
<path d="M653.9 116.2C653.9 116.2 658.7 150.1 638 157.8C617.3 165.5 624.8 175.8 624.8 175.8L656 191L689.3 180.6L700.4 164C700.4 164 682.4 159.8 687.2 147.4C692 135 693.4 130.8 693.4 130.8L653.9 116.2Z" fill="#FFB9B9"/>
<path opacity="0.1" d="M653.9 116.2C653.9 116.2 658.7 150.1 638 157.8C617.3 165.5 624.8 175.8 624.8 175.8L656 191L689.3 180.6L700.4 164C700.4 164 682.4 159.8 687.2 147.4C692 135 693.4 130.8 693.4 130.8L653.9 116.2Z" fill="black"/>
<path d="M741.2 213.2C741.2 213.2 736.4 276.9 737.7 279.7C739 282.5 737.7 378.8 737.7 378.8C737.7 378.8 747.4 430.8 734.9 433.5C722.4 436.2 725.2 375.3 725.2 375.3L712.7 294.9L714.1 215.2L741.2 213.2Z" fill="#FFB9B9"/>
<path opacity="0.1" d="M741.2 213.2C741.2 213.2 736.4 276.9 737.7 279.7C739 282.5 737.7 378.8 737.7 378.8C737.7 378.8 747.4 430.8 734.9 433.5C722.4 436.2 725.2 375.3 725.2 375.3L712.7 294.9L714.1 215.2L741.2 213.2Z" fill="black"/>
<path d="M606.1 405.1C606.1 405.1 583.2 491.7 583.9 534C584.6 576.3 593.6 635.1 593.6 635.1C593.6 635.1 595 660.7 592.9 663.5C590.8 666.3 603.3 678 603.3 678L616.5 670.4L621.3 664.9V660C621.3 660 613.7 636.4 619.9 617.7C626.1 599 629.6 551.9 623.4 537.3L666.4 409.8L606.1 405.1Z" fill="#FFB9B9"/>
<path d="M604.7 667C604.7 667 596.4 656.6 590.8 660.1C585.2 663.6 576.3 687.1 576.3 687.1C576.3 687.1 545.1 716.9 567.3 718.3C589.5 719.7 599.2 712.1 601.9 706.5C604.6 700.9 630.3 686.4 630.3 686.4C630.3 686.4 627.5 660.1 623.4 659.4C619.2 658.7 613 669.8 613 669.8L604.7 667Z" fill="#2F2E41"/>
<path d="M681.6 410.6V496.5C681.7 506.9 682.4 517.3 683.7 527.7C685.8 542.9 671.9 656.6 671.9 656.6L673.3 676.7L690.6 675.3L692.7 658L717.6 581.8C717.6 581.8 725.9 535.4 721.8 518.1C717.6 500.8 743.3 389.9 743.3 389.9L681.6 410.6Z" fill="#FFB9B9"/>
<path d="M667.8 671.8L672.9 670.7C672.9 670.7 676.8 662.1 681.6 664.2C685 665.8 688.2 667.7 691.2 670L693.3 673.9C693.3 673.9 698.1 684.3 704.4 691.2C710.6 698.1 717.6 713.4 707.2 714.8C696.8 716.2 683 716.9 678.8 713.4C674.6 709.9 677.4 704.4 673.3 703C669.1 701.6 665.7 697.5 666.4 696.1C667.1 694.7 667.8 671.8 667.8 671.8Z" fill="#2F2E41"/>
<path d="M681.6 140.1C698.61 140.1 712.4 126.31 712.4 109.3C712.4 92.2896 698.61 78.5 681.6 78.5C664.589 78.5 650.8 92.2896 650.8 109.3C650.8 126.31 664.589 140.1 681.6 140.1Z" fill="#FFB9B9"/>
<path d="M623.4 163.3L632.6 160.1C632.6 160.1 629 166.1 648.4 169.5C667.8 172.9 687.9 174.2 696.9 162.8C696.9 162.8 700.4 161.1 705.2 166C710 170.8 712.8 169.5 712.8 169.5L709.3 187.5L702.4 220.8L693.4 245.7L667.8 240.2L640.1 220.1L629.7 193.1V168.2L623.4 163.3Z" fill="#026ED6"/>
<path d="M708 173L714.9 168.2C714.9 168.2 738.5 172.4 739.8 183.4L721.8 218C725.5 227.6 725.2 238.3 721.1 247.8C714.2 263.7 714.9 267.2 714.9 267.2L710 288L622 294.9C622 294.9 618.5 286.6 617.2 285.2C615.9 283.8 615.8 279 617.2 279C618.6 279 617.2 276.9 615.8 274.8C614.4 272.7 613.7 272 615.8 269.3C617.9 266.6 612.3 241.6 612.3 241.6V214.6L588.7 183.4C588.7 183.4 597 170.9 601.2 169.5C605.4 168.1 625.1 162.7 625.1 162.7L629.6 169.3L635.8 219.4L644.8 249.9L682.7 243.5L697.4 218.8L707.1 189.7L708 173Z" fill="#026ED6"/>
<path d="M734.3 179.2L739.8 183.4C739.8 183.4 744.6 222.2 743.3 225C742 227.8 717.7 230.5 717 229.2C716.3 227.9 734.3 179.2 734.3 179.2Z" fill="#026ED6"/>
<path d="M620 159.8L626.9 205.5C626.9 205.5 620.7 273.4 622.1 287.2L623.5 291.4C623.5 291.4 620.7 290 620 292.8C619.3 295.6 620 304.6 620 304.6C620 304.6 615.8 308.8 614.5 331.6C613.2 354.4 596.5 409.2 602.7 411.3C608.9 413.4 646.3 423.8 666.4 421.7C686.5 419.6 758.5 395.4 757.8 389.1C757.1 382.8 722.5 294.9 722.5 294.9C722.5 294.9 716.3 284.5 716.3 283.1C716.3 281.7 724.6 276.2 722.5 270.6C720.4 265 709.3 207 709.3 207L716.9 165.4L706.5 162.6L698.9 202.8C698.9 202.8 669.1 217.3 637.9 204.2L631 157.1L620 159.8Z" fill="#2F2E41"/>
<path d="M653.3 87.1998C653.3 87.1998 704.6 122.5 718.4 106.6C732.2 90.6998 694.2 76.7998 694.2 76.7998L662.3 73.2998L653.3 87.1998Z" fill="#2F2E41"/>
<path d="M573.7 463C585.7 471.9 602.6 469.4 611.5 457.5C620.4 445.5 617.9 428.6 606 419.7C594 410.8 577.1 413.3 568.2 425.2C562.3 433.1 561.2 443.5 565.3 452.5L494.6 511.4L485.2 500.2L481 503L476.3 497.4L480.2 494.1L475.5 488.5L469.5 493.6L472.4 497L466 502.4L463.1 499L453.6 507L457.9 512.2L461.3 509.3L466 514.9L461.7 518.5L470.4 528.8L460.1 537.5L470.6 550L573.7 463ZM591.3 423.5C601.1 424.3 608.4 433 607.6 442.8C606.8 452.6 598.1 459.9 588.3 459.1C578.5 458.3 571.2 449.6 572 439.8C572.8 430 581.5 422.7 591.3 423.5Z" fill="#026ED6"/>
<path d="M584 221.5C584 221.5 588.8 285.2 587.5 288C586.2 290.8 587.5 387.1 587.5 387.1C587.5 387.1 577.8 439.1 590.3 441.8C602.8 444.5 600 383.6 600 383.6L612.5 303.2L611.1 223.5L584 221.5Z" fill="#FFB9B9"/>
<path d="M594.3 181.3L588.8 183.4C588.8 183.4 578.4 227 581.2 227C584 227 617.2 231.2 617.2 229.8C617.2 228.4 611 194.5 611 194.5L594.3 181.3Z" fill="#026ED6"/>
</g>
<defs>
<clipPath id="clip0_216_325">
<rect width="1010.9" height="727.3" fill="white"/>
</clipPath>
</defs>
</svg>
